<?xml version="1.0" encoding="utf-8"?>
<!-- Generator: Adobe Illustrator 16.0.0, SVG Export Plug-In . SVG Version: 6.00 Build 0)  -->
<!DOCTYPE svg PUBLIC "-//W3C//DTD SVG 1.1//EN" "http://www.w3.org/Graphics/SVG/1.1/DTD/svg11.dtd">
<svg version="1.1" id="Layer_1" xmlns="http://www.w3.org/2000/svg" xmlns:xlink="http://www.w3.org/1999/xlink" x="0px" y="0px"
	 width="1000px" height="1000px" viewBox="0 0 1000 1000" enable-background="new 0 0 1000 1000" xml:space="preserve">
<g>
	<path d="M317.709,872.268c-5.5,0-12.25-3.897-15-8.66L101.823,515.66c-2.75-4.763-2.75-12.558,0-17.32l200.887-347.947
		c2.75-4.763,9.5-8.66,15-8.66h401.774c5.5,0,12.25,3.897,15,8.66L935.37,498.34c2.75,4.763,2.75,12.558,0,17.32L734.483,863.607
		c-2.75,4.763-9.5,8.66-15,8.66H317.709z"/>
	<path fill="none" stroke="#FFFFFF" stroke-width="6" stroke-miterlimit="10" d="M317.709,872.268c-5.5,0-12.25-3.897-15-8.66
		L101.823,515.66c-2.75-4.763-2.75-12.558,0-17.32l200.887-347.947c2.75-4.763,9.5-8.66,15-8.66h401.774c5.5,0,12.25,3.897,15,8.66
		L935.37,498.34c2.75,4.763,2.75,12.558,0,17.32L734.483,863.607c-2.75,4.763-9.5,8.66-15,8.66H317.709z"/>
</g>
<g>
	<g>
		<g>
			<path fill="#C6C6C5" d="M718.865,789.222c0,5.5-4.5,10-10,10H342.127c-5.5,0-10-4.5-10-10v-546.25c0-5.5,4.5-10,10-10h366.738
				c5.5,0,10,4.5,10,10V789.222z"/>
		</g>
		<g>
			<path fill="#FFFFFF" d="M702.099,769.192c0,5.5-4.5,10-10,10H325.361c-5.5,0-10-4.5-10-10v-546.25c0-5.5,4.5-10,10-10h366.738
				c5.5,0,10,4.5,10,10V769.192z"/>
		</g>
	</g>
</g>
<g>
	<g>
		<path d="M344.47,231.438c-3.918,0-7.094,3.176-7.094,7.094s3.176,7.094,7.094,7.094c2.594,0,4.857-1.397,6.094-3.476v-7.236
			C349.327,232.834,347.064,231.438,344.47,231.438z"/>
		<path d="M350.563,234.913v7.236c0.631-1.06,1-2.294,1-3.618S351.194,235.973,350.563,234.913z"/>
	</g>
	<path fill="none" stroke="#636464" stroke-width="6" stroke-miterlimit="10" d="M351.789,239c-9.077,0-17.661-10.847-17.661-24.227
		c0-13.379,7.359-24.226,16.436-24.226c9.078,0,17.325,9.015,17.325,22.395"/>
	<path display="none" fill="none" stroke="#A7A9AC" stroke-miterlimit="10" d="M351.789,239c-9.352,0-17.651-10.07-17.651-23.727
		c0-13.656,7.582-24.726,16.933-24.726s16.818,8.739,16.818,22.395"/>
	<path fill="#FFFFFF" d="M350.563,232.063v2.851c0.631,1.06,1,2.294,1,3.618s-0.369,2.558-1,3.618v4.601h2.312v-14.688H350.563z"/>
</g>
<g>
	<g>
		<path d="M421.44,231.438c-3.918,0-7.094,3.176-7.094,7.094s3.176,7.094,7.094,7.094c2.594,0,4.857-1.397,6.094-3.476v-7.236
			C426.297,232.834,424.035,231.438,421.44,231.438z"/>
		<path d="M427.534,234.913v7.236c0.631-1.06,1-2.294,1-3.618S428.165,235.973,427.534,234.913z"/>
	</g>
	<path fill="none" stroke="#636464" stroke-width="6" stroke-miterlimit="10" d="M428.759,239c-9.077,0-17.661-10.847-17.661-24.227
		c0-13.379,7.359-24.226,16.436-24.226c9.078,0,17.325,9.015,17.325,22.395"/>
	<path display="none" fill="none" stroke="#A7A9AC" stroke-miterlimit="10" d="M428.759,239c-9.352,0-17.651-10.07-17.651-23.727
		c0-13.656,7.582-24.726,16.933-24.726s16.818,8.739,16.818,22.395"/>
	<path fill="#FFFFFF" d="M427.534,232.063v2.851c0.631,1.06,1,2.294,1,3.618s-0.369,2.558-1,3.618v4.601h2.312v-14.688H427.534z"/>
</g>
<g>
	<g>
		<path d="M502.191,231.438c-3.918,0-7.094,3.176-7.094,7.094s3.176,7.094,7.094,7.094c2.594,0,4.857-1.397,6.094-3.476v-7.236
			C507.049,232.834,504.785,231.438,502.191,231.438z"/>
		<path d="M508.285,234.913v7.236c0.631-1.06,1-2.294,1-3.618S508.916,235.973,508.285,234.913z"/>
	</g>
	<path fill="none" stroke="#636464" stroke-width="6" stroke-miterlimit="10" d="M509.51,239c-9.077,0-17.661-10.847-17.661-24.227
		c0-13.379,7.359-24.226,16.436-24.226c9.078,0,17.324,9.015,17.324,22.395"/>
	<path display="none" fill="none" stroke="#A7A9AC" stroke-miterlimit="10" d="M509.51,239c-9.351,0-17.651-10.07-17.651-23.727
		c0-13.656,7.582-24.726,16.934-24.726c9.352,0,16.816,8.739,16.816,22.395"/>
	<path fill="#FFFFFF" d="M508.285,232.063v2.851c0.631,1.06,1,2.294,1,3.618s-0.369,2.558-1,3.618v4.601h2.313v-14.688H508.285z"/>
</g>
<g>
	<g>
		<path d="M582.942,231.438c-3.918,0-7.094,3.176-7.094,7.094s3.176,7.094,7.094,7.094c2.595,0,4.856-1.397,6.094-3.476v-7.236
			C587.799,232.834,585.537,231.438,582.942,231.438z"/>
		<path d="M589.036,234.913v7.236c0.631-1.06,1-2.294,1-3.618S589.667,235.973,589.036,234.913z"/>
	</g>
	<path fill="none" stroke="#636464" stroke-width="6" stroke-miterlimit="10" d="M590.262,239c-9.078,0-17.662-10.847-17.662-24.227
		c0-13.379,7.359-24.226,16.437-24.226s17.325,9.015,17.325,22.395"/>
	<path display="none" fill="none" stroke="#A7A9AC" stroke-miterlimit="10" d="M590.262,239c-9.352,0-17.652-10.07-17.652-23.727
		c0-13.656,7.582-24.726,16.934-24.726s16.818,8.739,16.818,22.395"/>
	<path fill="#FFFFFF" d="M589.036,232.063v2.851c0.631,1.06,1,2.294,1,3.618s-0.369,2.558-1,3.618v4.601h2.312v-14.688H589.036z"/>
</g>
<g>
	<g>
		<path d="M663.463,231.313c-3.918,0-7.094,3.176-7.094,7.094s3.176,7.094,7.094,7.094c2.595,0,4.856-1.397,6.094-3.476v-7.236
			C668.319,232.709,666.058,231.313,663.463,231.313z"/>
		<path d="M669.557,234.788v7.236c0.631-1.06,1-2.294,1-3.618S670.188,235.848,669.557,234.788z"/>
	</g>
	<path fill="none" stroke="#636464" stroke-width="6" stroke-miterlimit="10" d="M670.782,238.875
		c-9.078,0-17.662-10.847-17.662-24.227c0-13.379,7.359-24.226,16.437-24.226s17.325,9.015,17.325,22.395"/>
	<path display="none" fill="none" stroke="#A7A9AC" stroke-miterlimit="10" d="M670.782,238.875
		c-9.352,0-17.652-10.07-17.652-23.727c0-13.656,7.582-24.726,16.934-24.726s16.818,8.739,16.818,22.395"/>
	<path fill="#FFFFFF" d="M669.557,231.938v2.851c0.631,1.06,1,2.294,1,3.618s-0.369,2.558-1,3.618v4.601h2.312v-14.688H669.557z"/>
</g>
<path d="M589.48,639.808c0,5.555-5.373,10.058-12,10.058H439.979c-6.627,0-12-4.503-12-10.058V352.326
	c0-5.555,5.373-10.058,12-10.058H577.48c6.627,0,12,4.503,12,10.058V639.808z"/>
<path d="M531.597,333.956c0-5.681-6.68-10.286-14.918-10.286h-16.163c-8.239,0-14.919,4.605-14.919,10.286v23.429
	c0,5.681,6.68,10.286,14.919,10.286h16.163c8.238,0,14.918-4.605,14.918-10.286V333.956z"/>
<g>
	<line fill="none" stroke="#FFFFFF" stroke-miterlimit="10" x1="472" y1="616.545" x2="428.077" y2="616.545"/>
	<line fill="none" stroke="#FFFFFF" stroke-miterlimit="10" x1="452.961" y1="583.545" x2="427.517" y2="583.545"/>
	<line fill="none" stroke="#FFFFFF" stroke-miterlimit="10" x1="471.439" y1="551.545" x2="427.517" y2="551.545"/>
	<line fill="none" stroke="#FFFFFF" stroke-miterlimit="10" x1="452.961" y1="520.643" x2="427.517" y2="520.643"/>
	<line fill="none" stroke="#FFFFFF" stroke-miterlimit="10" x1="471.439" y1="492.693" x2="427.517" y2="492.693"/>
	<line fill="none" stroke="#FFFFFF" stroke-miterlimit="10" x1="452.961" y1="463.545" x2="427.517" y2="463.545"/>
	<line fill="none" stroke="#FFFFFF" stroke-miterlimit="10" x1="471.439" y1="433.545" x2="427.517" y2="433.545"/>
	<line fill="none" stroke="#FFFFFF" stroke-miterlimit="10" x1="450.039" y1="404.545" x2="427.517" y2="404.545"/>
	<line fill="none" stroke="#FFFFFF" stroke-miterlimit="10" x1="471.439" y1="372.215" x2="427.517" y2="372.215"/>
</g>
<polygon fill="#92C83E" points="518.1,470.813 542.597,423.813 502.93,423.813 476.597,478.813 499.1,478.813 476.597,525.813 
	498.142,525.813 476.597,570.813 513.93,570.813 542.597,515.813 519.142,515.813 542.597,470.813 "/>
<line fill="none" stroke="#FFFFFF" stroke-miterlimit="10" x1="485.597" y1="341.269" x2="531.597" y2="341.269"/>
<g>
	<line fill="none" stroke="#FFFFFF" stroke-miterlimit="10" x1="545.439" y1="616.545" x2="589.361" y2="616.545"/>
	<line fill="none" stroke="#FFFFFF" stroke-miterlimit="10" x1="564.479" y1="583.545" x2="589.922" y2="583.545"/>
	<line fill="none" stroke="#FFFFFF" stroke-miterlimit="10" x1="546" y1="551.545" x2="589.922" y2="551.545"/>
	<line fill="none" stroke="#FFFFFF" stroke-miterlimit="10" x1="564.479" y1="520.643" x2="589.922" y2="520.643"/>
	<line fill="none" stroke="#FFFFFF" stroke-miterlimit="10" x1="546" y1="492.693" x2="589.922" y2="492.693"/>
	<line fill="none" stroke="#FFFFFF" stroke-miterlimit="10" x1="564.479" y1="463.545" x2="589.922" y2="463.545"/>
	<line fill="none" stroke="#FFFFFF" stroke-miterlimit="10" x1="546" y1="433.545" x2="589.922" y2="433.545"/>
	<line fill="none" stroke="#FFFFFF" stroke-miterlimit="10" x1="567.4" y1="404.545" x2="589.922" y2="404.545"/>
	<line fill="none" stroke="#FFFFFF" stroke-miterlimit="10" x1="546" y1="372.215" x2="589.922" y2="372.215"/>
</g>
</svg>
