<?xml version="1.0" encoding="utf-8"?>
<!-- Generator: Adobe Illustrator 16.0.0, SVG Export Plug-In . SVG Version: 6.00 Build 0)  -->
<!DOCTYPE svg PUBLIC "-//W3C//DTD SVG 1.1//EN" "http://www.w3.org/Graphics/SVG/1.1/DTD/svg11.dtd">
<svg version="1.1" id="Layer_1" xmlns="http://www.w3.org/2000/svg" xmlns:xlink="http://www.w3.org/1999/xlink" x="0px" y="0px"
	 width="1000px" height="1000px" viewBox="0 0 1000 1000" enable-background="new 0 0 1000 1000" xml:space="preserve">
<g display="none">
	<path display="inline" d="M269.062,912.59c-5.5,0-12.25-3.897-15-8.66L20.926,500.126c-2.75-4.763-2.75-12.557,0-17.32
		L254.062,79.003c2.75-4.763,9.5-8.66,15-8.66h466.271c5.5,0,12.25,3.897,15,8.66l233.136,403.802c2.75,4.763,2.75,12.557,0,17.32
		L750.332,903.93c-2.75,4.763-9.5,8.66-15,8.66H269.062z"/>
	<path display="inline" fill="none" stroke="#FFFFFF" stroke-width="6" stroke-miterlimit="10" d="M269.062,912.59
		c-5.5,0-12.25-3.897-15-8.66L20.926,500.126c-2.75-4.763-2.75-12.557,0-17.32L254.062,79.003c2.75-4.763,9.5-8.66,15-8.66h466.271
		c5.5,0,12.25,3.897,15,8.66l233.136,403.802c2.75,4.763,2.75,12.557,0,17.32L750.332,903.93c-2.75,4.763-9.5,8.66-15,8.66H269.062z
		"/>
</g>
<circle stroke="#FFFFFF" stroke-width="6" stroke-miterlimit="10" cx="505.263" cy="516.148" r="464.964"/>
<g>
	<g>
		<g>
			<path fill="#93C83E" d="M773.6,806.364c0,5.5-4.5,10-10,10H267.322c-5.5,0-10-4.5-10-10V250.122c0-5.5,4.5-10,10-10H763.6
				c5.5,0,10,4.5,10,10V806.364z"/>
		</g>
		<g>
			<path fill="#FFFFFF" d="M752.06,783.98c0,5.5-4.5,10-10,10H245.781c-5.5,0-10-4.5-10-10V227.739c0-5.5,4.5-10,10-10H742.06
				c5.5,0,10,4.5,10,10V783.98z"/>
		</g>
	</g>
</g>
<g>
	<g>
		<path d="M377.393,236.561c-5.23,0-9.47,3.232-9.47,7.219c0,3.986,4.24,7.218,9.47,7.218c3.463,0,6.484-1.42,8.135-3.537v-7.363
			C383.876,237.982,380.855,236.561,377.393,236.561z"/>
		<path d="M385.527,240.098v7.363c0.843-1.078,1.335-2.335,1.335-3.681C386.862,242.433,386.37,241.177,385.527,240.098z"/>
	</g>
	<path fill="none" stroke="#000000" stroke-width="6" stroke-miterlimit="10" d="M387.163,244.256
		c-12.118,0-23.577-11.038-23.577-24.654c0-13.615,9.823-24.653,21.941-24.653c12.118,0,23.128,9.174,23.128,22.789"/>
	<path display="none" fill="none" stroke="#A7A9AC" stroke-miterlimit="10" d="M387.163,66.49
		c-12.484,0-23.563-13.444-23.563-31.675c0-18.229,10.121-33.007,22.604-33.007c12.483,0,22.452,11.666,22.452,29.895"/>
	<path fill="#FFFFFF" d="M385.527,237.197v2.901c0.843,1.079,1.335,2.334,1.335,3.682c0,1.346-0.492,2.603-1.335,3.681v4.682h3.086
		v-14.947H385.527z"/>
</g>
<g>
	<path fill="none" stroke="#000000" stroke-width="6" stroke-miterlimit="10" d="M494.961,244.256
		c-12.115,0-23.575-11.038-23.575-24.654c0-13.615,9.824-24.653,21.941-24.653c12.119,0,23.127,9.174,23.127,22.789"/>
	<path display="none" fill="none" stroke="#A7A9AC" stroke-miterlimit="10" d="M494.961,66.49
		c-12.482,0-23.563-13.444-23.563-31.675c0-18.229,10.122-33.007,22.607-33.007c12.483,0,22.449,11.666,22.449,29.895"/>
	<path fill="#FFFFFF" d="M493.327,237.197v2.901c0.842,1.079,1.335,2.334,1.335,3.682c0,1.346-0.493,2.603-1.335,3.681v4.682h3.087
		v-14.947H493.327z"/>
</g>
<g>
	<g>
		<path d="M592.99,236.561c-5.229,0-9.47,3.232-9.47,7.219c0,3.986,4.24,7.218,9.47,7.218c3.464,0,6.483-1.42,8.136-3.537v-7.363
			C599.474,237.982,596.454,236.561,592.99,236.561z"/>
		<path d="M601.126,240.098v7.363c0.843-1.078,1.335-2.335,1.335-3.681C602.461,242.433,601.969,241.177,601.126,240.098z"/>
	</g>
	<path fill="none" stroke="#000000" stroke-width="6" stroke-miterlimit="10" d="M602.763,244.256
		c-12.119,0-23.578-11.038-23.578-24.654c0-13.615,9.824-24.653,21.941-24.653s23.128,9.174,23.128,22.789"/>
	<path display="none" fill="none" stroke="#000000" stroke-miterlimit="10" d="M602.763,66.49
		c-12.484,0-23.565-13.444-23.565-31.675c0-18.229,10.121-33.007,22.605-33.007c12.483,0,22.451,11.666,22.451,29.895"/>
	<path fill="#FFFFFF" d="M601.126,237.197v2.901c0.843,1.079,1.335,2.334,1.335,3.682c0,1.346-0.492,2.603-1.335,3.681v4.682h3.086
		v-14.947H601.126z"/>
</g>
<g>
	<g>
		<g>
			<g>
				<g>
					<path d="M275.64,235.495c-5.23,0-9.47,4.023-9.47,8.987c0,4.963,4.24,8.985,9.47,8.985c3.463,0,6.484-1.768,8.135-4.403v-9.167
						C282.124,237.265,279.104,235.495,275.64,235.495z"/>
					<path d="M283.775,239.898v9.167c0.842-1.342,1.334-2.906,1.334-4.583C285.11,242.805,284.617,241.241,283.775,239.898z"/>
				</g>
				<path fill="none" stroke="#000000" stroke-width="6" stroke-miterlimit="10" d="M284.41,244.256
					c-12.117,0-23.576-11.038-23.576-24.654c0-13.615,9.824-24.653,21.941-24.653c12.118,0,23.127,9.174,23.127,22.789"/>
				<path display="none" fill="none" stroke="#A7A9AC" stroke-miterlimit="10" d="M284.41,66.49
					c-12.483,0-23.564-13.444-23.564-31.675c0-18.229,10.122-33.007,22.605-33.007c12.485,0,22.451,11.666,22.451,29.895"/>
				<g>
					<path d="M377.393,235.495c-5.23,0-9.47,4.023-9.47,8.987c0,4.963,4.24,8.985,9.47,8.985c3.463,0,6.484-1.768,8.135-4.403
						v-9.167C383.876,237.265,380.856,235.495,377.393,235.495z"/>
					<path d="M385.528,239.898v9.167c0.842-1.342,1.334-2.906,1.334-4.583C386.862,242.805,386.37,241.241,385.528,239.898z"/>
				</g>
				<g>
					<path d="M485.191,235.495c-5.23,0-9.47,4.023-9.47,8.987c0,4.963,4.24,8.985,9.47,8.985c3.463,0,6.484-1.768,8.135-4.403
						v-9.167C491.675,237.265,488.654,235.495,485.191,235.495z"/>
					<path d="M493.326,239.898v9.167c0.842-1.342,1.334-2.906,1.334-4.583C494.661,242.805,494.168,241.241,493.326,239.898z"/>
				</g>
				<g>
					<path d="M592.324,235.495c-5.23,0-9.471,4.023-9.471,8.987c0,4.963,4.24,8.985,9.471,8.985c3.463,0,6.483-1.768,8.135-4.403
						v-9.167C598.808,237.265,595.787,235.495,592.324,235.495z"/>
					<path d="M600.459,239.898v9.167c0.842-1.342,1.334-2.906,1.334-4.583C601.793,242.805,601.301,241.241,600.459,239.898z"/>
				</g>
				<g>
					<path d="M700.483,234.667c-5.23,0-9.471,4.023-9.471,8.987c0,4.963,4.24,8.985,9.471,8.985c3.463,0,6.483-1.768,8.135-4.403
						v-9.167C706.967,236.436,703.946,234.667,700.483,234.667z"/>
					<path d="M708.618,239.069v9.167c0.842-1.342,1.334-2.906,1.334-4.583C709.952,241.976,709.46,240.413,708.618,239.069z"/>
				</g>
			</g>
			<path d="M485.192,236.561c-5.231,0-9.471,3.232-9.471,7.219c0,3.986,4.24,7.218,9.471,7.218c3.462,0,6.484-1.42,8.135-3.537
				v-7.363C491.677,237.982,488.654,236.561,485.192,236.561z"/>
			<path d="M493.327,240.098v7.363c0.842-1.078,1.335-2.335,1.335-3.681C494.662,242.433,494.169,241.177,493.327,240.098z"/>
		</g>
		<path d="M700.481,236.434c-5.229,0-9.469,3.231-9.469,7.219s4.239,7.219,9.469,7.219c3.466,0,6.483-1.422,8.137-3.537v-7.364
			C706.965,237.855,703.947,236.434,700.481,236.434z"/>
		<path d="M708.618,239.971v7.364c0.841-1.079,1.335-2.335,1.335-3.683C709.953,242.305,709.459,241.049,708.618,239.971z"/>
	</g>
	<path fill="none" stroke="#000000" stroke-width="6" stroke-miterlimit="10" d="M710.254,244.13
		c-12.119,0-23.578-11.038-23.578-24.654s9.823-24.653,21.942-24.653c12.116,0,23.127,9.174,23.127,22.79"/>
	<path display="none" fill="none" stroke="#A7A9AC" stroke-miterlimit="10" d="M710.254,66.323
		c-12.483,0-23.565-13.443-23.565-31.673c0-18.23,10.121-33.009,22.605-33.009c12.485,0,22.451,11.667,22.451,29.896"/>
	<path fill="#FFFFFF" d="M708.618,237.07v2.9c0.841,1.079,1.335,2.334,1.335,3.682c0,1.348-0.494,2.604-1.335,3.683v4.682h3.085
		V237.07H708.618z"/>
</g>
<g>
	<path d="M610.237,708.309c0,7.359-7.57,13.327-16.907,13.327H399.604c-9.337,0-16.906-5.968-16.906-13.327V327.372
		c0-7.361,7.569-13.328,16.906-13.328H593.33c9.337,0,16.907,5.967,16.907,13.328V708.309z"/>
	<path d="M529.716,304.522c0-9.866-9.653-17.865-21.564-17.865h-23.365c-11.91,0-21.567,7.999-21.567,17.865v40.692
		c0,9.866,9.657,17.863,21.567,17.863h23.365c11.911,0,21.564-7.998,21.564-17.863V304.522z"/>
	<g>
		
			<line fill="none" stroke="#FFFFFF" stroke-width="6" stroke-miterlimit="10" x1="444.719" y1="677.485" x2="382.837" y2="677.485"/>
		
			<line fill="none" stroke="#FFFFFF" stroke-width="6" stroke-miterlimit="10" x1="417.896" y1="633.756" x2="382.048" y2="633.756"/>
		
			<line fill="none" stroke="#FFFFFF" stroke-width="6" stroke-miterlimit="10" x1="443.929" y1="591.354" x2="382.048" y2="591.354"/>
		
			<line fill="none" stroke="#FFFFFF" stroke-width="6" stroke-miterlimit="10" x1="417.896" y1="550.404" x2="382.048" y2="550.404"/>
		
			<line fill="none" stroke="#FFFFFF" stroke-width="6" stroke-miterlimit="10" x1="443.929" y1="513.371" x2="382.048" y2="513.371"/>
		
			<line fill="none" stroke="#FFFFFF" stroke-width="6" stroke-miterlimit="10" x1="417.896" y1="474.745" x2="382.048" y2="474.745"/>
		
			<line fill="none" stroke="#FFFFFF" stroke-width="6" stroke-miterlimit="10" x1="443.929" y1="434.994" x2="382.048" y2="434.994"/>
		
			<line fill="none" stroke="#FFFFFF" stroke-width="6" stroke-miterlimit="10" x1="413.779" y1="396.566" x2="382.048" y2="396.566"/>
		
			<line fill="none" stroke="#FFFFFF" stroke-width="6" stroke-miterlimit="10" x1="443.929" y1="353.727" x2="382.048" y2="353.727"/>
	</g>
	<g>
		<path fill="#93C83E" d="M516.479,461.425c-5.5,0-8.776-4.331-7.28-9.623l19.349-68.451c1.496-5.292-1.78-9.623-7.28-9.623h-20.138
			c-5.5,0-11.131,4.355-12.513,9.679l-21.619,83.267c-1.382,5.324,1.987,9.679,7.487,9.679h2.769c5.5,0,8.869,4.355,7.487,9.679
			l-17.743,68.341c-1.382,5.323,1.987,9.679,7.487,9.679h1.799c5.5,0,8.869,4.355,7.487,9.679l-16.773,64.606
			c-1.382,5.323,1.987,9.679,7.487,9.679h17.776c5.5,0,11.224-4.33,12.72-9.623l23.567-83.38c1.496-5.293-1.78-9.623-7.28-9.623
			h-3.733c-5.5,0-8.776-4.33-7.28-9.623l18.294-64.719c1.496-5.292-1.78-9.623-7.28-9.623H516.479z"/>
	</g>
	<g>
		
			<line fill="none" stroke="#FFFFFF" stroke-width="6" stroke-miterlimit="10" x1="548.188" y1="677.485" x2="610.069" y2="677.485"/>
		
			<line fill="none" stroke="#FFFFFF" stroke-width="6" stroke-miterlimit="10" x1="575.013" y1="633.756" x2="610.859" y2="633.756"/>
		
			<line fill="none" stroke="#FFFFFF" stroke-width="6" stroke-miterlimit="10" x1="548.979" y1="591.354" x2="610.859" y2="591.354"/>
		
			<line fill="none" stroke="#FFFFFF" stroke-width="6" stroke-miterlimit="10" x1="575.013" y1="550.404" x2="610.859" y2="550.404"/>
		
			<line fill="none" stroke="#FFFFFF" stroke-width="6" stroke-miterlimit="10" x1="548.979" y1="513.371" x2="610.859" y2="513.371"/>
		
			<line fill="none" stroke="#FFFFFF" stroke-width="6" stroke-miterlimit="10" x1="575.013" y1="474.745" x2="610.859" y2="474.745"/>
		
			<line fill="none" stroke="#FFFFFF" stroke-width="6" stroke-miterlimit="10" x1="548.979" y1="434.994" x2="610.859" y2="434.994"/>
		
			<line fill="none" stroke="#FFFFFF" stroke-width="6" stroke-miterlimit="10" x1="579.13" y1="396.566" x2="610.859" y2="396.566"/>
		
			<line fill="none" stroke="#FFFFFF" stroke-width="6" stroke-miterlimit="10" x1="548.979" y1="353.727" x2="610.859" y2="353.727"/>
	</g>
</g>
</svg>
